<mxfile host="app.diagrams.net" modified="2023-12-02T16:37:51.765Z" agent="Mozilla/5.0 (Windows NT 10.0; Win64; x64) AppleWebKit/537.36 (KHTML, like Gecko) Chrome/119.0.0.0 Safari/537.36" etag="AMERjH_OzwpnYs56vyvZ" version="22.1.5" type="device">
  <diagram name="Page-1" id="G0ZUaRkxyIbJszNYvlnm">
    <mxGraphModel dx="653" dy="731" grid="1" gridSize="10" guides="1" tooltips="1" connect="1" arrows="1" fold="1" page="1" pageScale="1" pageWidth="850" pageHeight="1100" math="0" shadow="0">
      <root>
        <mxCell id="0" />
        <mxCell id="1" parent="0" />
        <mxCell id="fwQetxIIhN8tgjW5Q6ck-1" value="" style="shape=umlLifeline;perimeter=lifelinePerimeter;whiteSpace=wrap;html=1;container=1;dropTarget=0;collapsible=0;recursiveResize=0;outlineConnect=0;portConstraint=eastwest;newEdgeStyle={&quot;curved&quot;:0,&quot;rounded&quot;:0};participant=umlActor;" vertex="1" parent="1">
          <mxGeometry x="90" y="40" width="20" height="640" as="geometry" />
        </mxCell>
        <mxCell id="fwQetxIIhN8tgjW5Q6ck-4" value="" style="html=1;points=[[0,0,0,0,5],[0,1,0,0,-5],[1,0,0,0,5],[1,1,0,0,-5]];perimeter=orthogonalPerimeter;outlineConnect=0;targetShapes=umlLifeline;portConstraint=eastwest;newEdgeStyle={&quot;curved&quot;:0,&quot;rounded&quot;:0};" vertex="1" parent="fwQetxIIhN8tgjW5Q6ck-1">
          <mxGeometry x="5" y="70" width="10" height="560" as="geometry" />
        </mxCell>
        <mxCell id="fwQetxIIhN8tgjW5Q6ck-2" value="User" style="text;html=1;align=center;verticalAlign=middle;resizable=0;points=[];autosize=1;strokeColor=none;fillColor=none;" vertex="1" parent="1">
          <mxGeometry x="75" y="10" width="50" height="30" as="geometry" />
        </mxCell>
        <mxCell id="fwQetxIIhN8tgjW5Q6ck-3" value="Login Page" style="shape=umlLifeline;perimeter=lifelinePerimeter;whiteSpace=wrap;html=1;container=1;dropTarget=0;collapsible=0;recursiveResize=0;outlineConnect=0;portConstraint=eastwest;newEdgeStyle={&quot;curved&quot;:0,&quot;rounded&quot;:0};" vertex="1" parent="1">
          <mxGeometry x="170" y="40" width="100" height="640" as="geometry" />
        </mxCell>
        <mxCell id="fwQetxIIhN8tgjW5Q6ck-5" value="" style="html=1;points=[[0,0,0,0,5],[0,1,0,0,-5],[1,0,0,0,5],[1,1,0,0,-5]];perimeter=orthogonalPerimeter;outlineConnect=0;targetShapes=umlLifeline;portConstraint=eastwest;newEdgeStyle={&quot;curved&quot;:0,&quot;rounded&quot;:0};" vertex="1" parent="fwQetxIIhN8tgjW5Q6ck-3">
          <mxGeometry x="45" y="70" width="10" height="100" as="geometry" />
        </mxCell>
        <mxCell id="fwQetxIIhN8tgjW5Q6ck-6" value="Forgot Password" style="shape=umlLifeline;perimeter=lifelinePerimeter;whiteSpace=wrap;html=1;container=1;dropTarget=0;collapsible=0;recursiveResize=0;outlineConnect=0;portConstraint=eastwest;newEdgeStyle={&quot;curved&quot;:0,&quot;rounded&quot;:0};" vertex="1" parent="1">
          <mxGeometry x="290" y="40" width="100" height="640" as="geometry" />
        </mxCell>
        <mxCell id="fwQetxIIhN8tgjW5Q6ck-7" value="" style="html=1;points=[[0,0,0,0,5],[0,1,0,0,-5],[1,0,0,0,5],[1,1,0,0,-5]];perimeter=orthogonalPerimeter;outlineConnect=0;targetShapes=umlLifeline;portConstraint=eastwest;newEdgeStyle={&quot;curved&quot;:0,&quot;rounded&quot;:0};" vertex="1" parent="fwQetxIIhN8tgjW5Q6ck-6">
          <mxGeometry x="45" y="70" width="10" height="80" as="geometry" />
        </mxCell>
        <mxCell id="fwQetxIIhN8tgjW5Q6ck-8" value="Login to page" style="html=1;verticalAlign=bottom;endArrow=block;curved=0;rounded=0;" edge="1" parent="1">
          <mxGeometry width="80" relative="1" as="geometry">
            <mxPoint x="99.5" y="110" as="sourcePoint" />
            <mxPoint x="219.5" y="110" as="targetPoint" />
          </mxGeometry>
        </mxCell>
        <mxCell id="fwQetxIIhN8tgjW5Q6ck-9" value="Forgot password" style="html=1;verticalAlign=bottom;endArrow=block;curved=0;rounded=0;" edge="1" parent="1" target="fwQetxIIhN8tgjW5Q6ck-6">
          <mxGeometry width="80" relative="1" as="geometry">
            <mxPoint x="220" y="110" as="sourcePoint" />
            <mxPoint x="300" y="110" as="targetPoint" />
          </mxGeometry>
        </mxCell>
        <mxCell id="fwQetxIIhN8tgjW5Q6ck-10" value="Verification" style="shape=umlLifeline;perimeter=lifelinePerimeter;whiteSpace=wrap;html=1;container=1;dropTarget=0;collapsible=0;recursiveResize=0;outlineConnect=0;portConstraint=eastwest;newEdgeStyle={&quot;curved&quot;:0,&quot;rounded&quot;:0};" vertex="1" parent="1">
          <mxGeometry x="410" y="40" width="100" height="640" as="geometry" />
        </mxCell>
        <mxCell id="fwQetxIIhN8tgjW5Q6ck-11" value="" style="html=1;points=[[0,0,0,0,5],[0,1,0,0,-5],[1,0,0,0,5],[1,1,0,0,-5]];perimeter=orthogonalPerimeter;outlineConnect=0;targetShapes=umlLifeline;portConstraint=eastwest;newEdgeStyle={&quot;curved&quot;:0,&quot;rounded&quot;:0};" vertex="1" parent="fwQetxIIhN8tgjW5Q6ck-10">
          <mxGeometry x="45" y="170" width="10" height="80" as="geometry" />
        </mxCell>
        <mxCell id="fwQetxIIhN8tgjW5Q6ck-12" value="Check login details" style="html=1;verticalAlign=bottom;endArrow=block;curved=0;rounded=0;" edge="1" parent="1">
          <mxGeometry width="80" relative="1" as="geometry">
            <mxPoint x="220.25" y="210" as="sourcePoint" />
            <mxPoint x="459.75" y="210" as="targetPoint" />
          </mxGeometry>
        </mxCell>
        <mxCell id="fwQetxIIhN8tgjW5Q6ck-17" value="Database" style="shape=umlLifeline;perimeter=lifelinePerimeter;whiteSpace=wrap;html=1;container=1;dropTarget=0;collapsible=0;recursiveResize=0;outlineConnect=0;portConstraint=eastwest;newEdgeStyle={&quot;curved&quot;:0,&quot;rounded&quot;:0};" vertex="1" parent="1">
          <mxGeometry x="530" y="40" width="100" height="640" as="geometry" />
        </mxCell>
        <mxCell id="fwQetxIIhN8tgjW5Q6ck-18" value="" style="html=1;points=[[0,0,0,0,5],[0,1,0,0,-5],[1,0,0,0,5],[1,1,0,0,-5]];perimeter=orthogonalPerimeter;outlineConnect=0;targetShapes=umlLifeline;portConstraint=eastwest;newEdgeStyle={&quot;curved&quot;:0,&quot;rounded&quot;:0};" vertex="1" parent="fwQetxIIhN8tgjW5Q6ck-17">
          <mxGeometry x="45" y="250" width="10" height="80" as="geometry" />
        </mxCell>
        <mxCell id="fwQetxIIhN8tgjW5Q6ck-19" value="Valid login details" style="html=1;verticalAlign=bottom;endArrow=block;curved=0;rounded=0;" edge="1" parent="1" source="fwQetxIIhN8tgjW5Q6ck-11" target="fwQetxIIhN8tgjW5Q6ck-18">
          <mxGeometry width="80" relative="1" as="geometry">
            <mxPoint x="460" y="290" as="sourcePoint" />
            <mxPoint x="540" y="290" as="targetPoint" />
          </mxGeometry>
        </mxCell>
        <mxCell id="fwQetxIIhN8tgjW5Q6ck-20" value="Authenticate page" style="shape=umlLifeline;perimeter=lifelinePerimeter;whiteSpace=wrap;html=1;container=1;dropTarget=0;collapsible=0;recursiveResize=0;outlineConnect=0;portConstraint=eastwest;newEdgeStyle={&quot;curved&quot;:0,&quot;rounded&quot;:0};" vertex="1" parent="1">
          <mxGeometry x="650" y="40" width="100" height="640" as="geometry" />
        </mxCell>
        <mxCell id="fwQetxIIhN8tgjW5Q6ck-38" value="" style="html=1;points=[[0,0,0,0,5],[0,1,0,0,-5],[1,0,0,0,5],[1,1,0,0,-5]];perimeter=orthogonalPerimeter;outlineConnect=0;targetShapes=umlLifeline;portConstraint=eastwest;newEdgeStyle={&quot;curved&quot;:0,&quot;rounded&quot;:0};" vertex="1" parent="fwQetxIIhN8tgjW5Q6ck-20">
          <mxGeometry x="45" y="420" width="10" height="80" as="geometry" />
        </mxCell>
        <mxCell id="fwQetxIIhN8tgjW5Q6ck-22" value="Provide authorization&lt;br&gt;for acces" style="html=1;verticalAlign=bottom;endArrow=block;curved=0;rounded=0;" edge="1" parent="1" target="fwQetxIIhN8tgjW5Q6ck-20">
          <mxGeometry width="80" relative="1" as="geometry">
            <mxPoint x="580" y="290" as="sourcePoint" />
            <mxPoint x="660" y="290" as="targetPoint" />
          </mxGeometry>
        </mxCell>
        <mxCell id="fwQetxIIhN8tgjW5Q6ck-26" value="Check authenticity&lt;br&gt;for access" style="html=1;verticalAlign=bottom;endArrow=block;curved=0;rounded=0;" edge="1" parent="1">
          <mxGeometry width="80" relative="1" as="geometry">
            <mxPoint x="699.5" y="210" as="sourcePoint" />
            <mxPoint x="579.5" y="210" as="targetPoint" />
          </mxGeometry>
        </mxCell>
        <mxCell id="fwQetxIIhN8tgjW5Q6ck-30" value="Create session&amp;nbsp;&lt;br&gt;in and store in&lt;br&gt;database" style="html=1;align=left;spacingLeft=2;endArrow=block;rounded=0;edgeStyle=orthogonalEdgeStyle;curved=0;rounded=0;" edge="1" parent="1">
          <mxGeometry relative="1" as="geometry">
            <mxPoint x="580" y="370" as="sourcePoint" />
            <Array as="points">
              <mxPoint x="610" y="400" />
            </Array>
            <mxPoint x="585" y="399.9999999999998" as="targetPoint" />
          </mxGeometry>
        </mxCell>
        <mxCell id="fwQetxIIhN8tgjW5Q6ck-32" value="Allow user to&lt;br&gt;access the internal&lt;br&gt;pages" style="html=1;align=left;spacingLeft=2;endArrow=block;rounded=0;edgeStyle=orthogonalEdgeStyle;curved=0;rounded=0;" edge="1" parent="1">
          <mxGeometry relative="1" as="geometry">
            <mxPoint x="700" y="370" as="sourcePoint" />
            <Array as="points">
              <mxPoint x="730" y="400" />
            </Array>
            <mxPoint x="705" y="399.9999999999998" as="targetPoint" />
          </mxGeometry>
        </mxCell>
        <mxCell id="fwQetxIIhN8tgjW5Q6ck-33" value="Check security" style="html=1;verticalAlign=bottom;endArrow=block;curved=0;rounded=0;" edge="1" parent="1" source="fwQetxIIhN8tgjW5Q6ck-6">
          <mxGeometry width="80" relative="1" as="geometry">
            <mxPoint x="500" y="370" as="sourcePoint" />
            <mxPoint x="580" y="370" as="targetPoint" />
          </mxGeometry>
        </mxCell>
        <mxCell id="fwQetxIIhN8tgjW5Q6ck-34" value="Allow user to reset password" style="html=1;verticalAlign=bottom;endArrow=block;curved=0;rounded=0;" edge="1" parent="1">
          <mxGeometry width="80" relative="1" as="geometry">
            <mxPoint x="580.13" y="400" as="sourcePoint" />
            <mxPoint x="339.88" y="400" as="targetPoint" />
          </mxGeometry>
        </mxCell>
        <mxCell id="fwQetxIIhN8tgjW5Q6ck-36" value="Invalid login details" style="html=1;verticalAlign=bottom;endArrow=open;dashed=1;endSize=8;curved=0;rounded=0;" edge="1" parent="1" source="fwQetxIIhN8tgjW5Q6ck-10">
          <mxGeometry relative="1" as="geometry">
            <mxPoint x="300" y="430" as="sourcePoint" />
            <mxPoint x="220" y="430" as="targetPoint" />
          </mxGeometry>
        </mxCell>
        <mxCell id="fwQetxIIhN8tgjW5Q6ck-37" value="Allow user to acces the pages" style="html=1;verticalAlign=bottom;endArrow=block;curved=0;rounded=0;" edge="1" parent="1" target="fwQetxIIhN8tgjW5Q6ck-20">
          <mxGeometry width="80" relative="1" as="geometry">
            <mxPoint x="460" y="460" as="sourcePoint" />
            <mxPoint x="540" y="460" as="targetPoint" />
          </mxGeometry>
        </mxCell>
        <mxCell id="fwQetxIIhN8tgjW5Q6ck-40" value="Logout from application" style="html=1;verticalAlign=bottom;endArrow=open;dashed=1;endSize=8;curved=0;rounded=0;" edge="1" parent="1">
          <mxGeometry relative="1" as="geometry">
            <mxPoint x="580" y="540" as="sourcePoint" />
            <mxPoint x="219.25" y="540" as="targetPoint" />
          </mxGeometry>
        </mxCell>
        <mxCell id="fwQetxIIhN8tgjW5Q6ck-41" value="Destroy session and&lt;br&gt;tokens from database" style="html=1;verticalAlign=bottom;endArrow=block;curved=0;rounded=0;" edge="1" parent="1">
          <mxGeometry width="80" relative="1" as="geometry">
            <mxPoint x="699.5" y="570" as="sourcePoint" />
            <mxPoint x="579.25" y="570" as="targetPoint" />
          </mxGeometry>
        </mxCell>
        <mxCell id="fwQetxIIhN8tgjW5Q6ck-43" value="Login successfully" style="html=1;verticalAlign=bottom;endArrow=open;dashed=1;endSize=8;curved=0;rounded=0;" edge="1" parent="1" target="fwQetxIIhN8tgjW5Q6ck-1">
          <mxGeometry relative="1" as="geometry">
            <mxPoint x="220" y="570" as="sourcePoint" />
            <mxPoint x="140" y="570" as="targetPoint" />
          </mxGeometry>
        </mxCell>
      </root>
    </mxGraphModel>
  </diagram>
</mxfile>
